# xmcd
# 
# Track frame offsets:
#     150
#     22587
#     40260
#     64940
#     85222
#     110152
#     132927
#     137000
#     153275
#     172882
#     192352
#     212647
#     239582
#     261435
# 
# Disc length: 3547
# 
# Revision: 2
# Processed by: cddbd v1.5.2PL0 Copyright (c) Steve Scherf et al.
# Submitted via: BonkEnc v1.0.15
# 
DISCID=c20dd90e
DTITLE=Tower of Power - T.O.P.
DYEAR=0
DGENRE=
TTITLE0=Soul With A Capital "S"
TTITLE1=It All Comes Back
TTITLE2=Please Come Back (To Stay)
TTITLE3=The Real Deal
TTITLE4=Come To A Decision
TTITLE5=Cruise Control
TTITLE6=The Educated Bump Part I
TTITLE7=Mama Lied
TTITLE8=Quiet Scream
TTITLE9=I Like Your Style
TTITLE10=You
TTITLE11=South Of The Boulevard
TTITLE12=Come On With It
TTITLE13=The Educated Bump Part II
EXTD=
EXTT0=
EXTT1=
EXTT2=
EXTT3=
EXTT4=
EXTT5=
EXTT6=
EXTT7=
EXTT8=
EXTT9=
EXTT10=
EXTT11=
EXTT12=
EXTT13=
PLAYORDER=
